<svg width="148" height="155" viewBox="0 0 148 155" fill="none" xmlns="http://www.w3.org/2000/svg">
<rect y="0.0970459" width="148" height="148" rx="41.0443" fill="#EFF6FF"/>
<g filter="url(#filter0_dd_915_296)">
<rect x="12" y="12.097" width="124" height="124" rx="41.0443" fill="#00618A" shape-rendering="crispEdges"/>
<path d="M25.8243 95.3104H29.0743V81.8622L34.1058 93.5859C34.6995 95.0049 35.5121 95.507 37.1057 95.507C38.6996 95.507 39.4808 95.0049 40.0747 93.5859L45.106 81.8622V95.3104H48.3562V81.8842C48.3562 80.5744 47.856 79.9411 46.8249 79.6139C44.3561 78.8061 42.6997 79.5046 41.9496 81.2512L37.012 92.8216L32.2307 81.2512C31.512 79.5046 29.8244 78.8061 27.3557 79.6139C26.3243 79.9411 25.8243 80.5744 25.8243 81.8842V95.3104Z" fill="white"/>
<path d="M51.0576 84.3637H54.3067V91.7727C54.2763 92.1753 54.43 93.1199 56.2104 93.1493C57.1187 93.1642 63.2207 93.1493 63.2777 93.1493V84.3276H66.5343C66.5493 84.3276 66.531 96.3579 66.5313 96.4091C66.5493 99.3761 63.018 100.021 61.3905 100.07H51.1283V97.7794C51.1462 97.7794 61.3829 97.7815 61.4087 97.7788C63.5004 97.5473 63.2534 96.4579 63.2531 96.0911V95.198H56.3453C53.1314 95.1669 51.0847 93.6972 51.0594 92.0063C51.0571 91.8496 51.1288 84.4377 51.0576 84.3637Z" fill="white"/>
<path d="M69.0401 95.3087H78.3838C79.4777 95.3087 80.5403 95.0687 81.3841 94.6536C82.7902 93.9771 83.4779 93.0604 83.4779 91.8593V89.3707C83.4779 88.3882 82.6966 87.4711 81.1652 86.8601C80.3526 86.5323 79.3526 86.3578 78.3838 86.3578H74.4461C73.1339 86.3578 72.5088 85.9431 72.3527 85.0263C72.3213 84.917 72.3213 84.8295 72.3213 84.7205V83.1707C72.3213 83.0832 72.3213 82.9957 72.3527 82.8867C72.5088 82.1882 72.8527 81.9914 74.0088 81.8824C74.1027 81.8824 74.2275 81.8604 74.3214 81.8604H83.6029V79.5903H74.4775C73.165 79.5903 72.4774 79.6776 71.8526 79.8738C69.915 80.5071 69.0712 81.5114 69.0712 83.258V85.2445C69.0712 86.7729 70.7276 88.0827 73.5087 88.3882C73.8215 88.4099 74.1338 88.4316 74.4461 88.4316H77.8212C77.9465 88.4316 78.0715 88.4316 78.1652 88.4537C79.1965 88.5412 79.6338 88.7374 79.9466 89.1304C80.1339 89.3267 80.1964 89.5235 80.1964 89.7417V91.7283C80.1964 91.9685 80.0403 92.2743 79.728 92.5361C79.4465 92.7981 78.9778 92.9728 78.3527 93.0166C78.2277 93.0166 78.134 93.0383 78.009 93.0383H69.0401V95.3087Z" fill="#E48E00"/>
<path d="M103.75 91.3573C103.75 93.6931 105.406 95.0032 108.75 95.2652C109.062 95.2869 109.375 95.3087 109.687 95.3087H118.156V93.0383H109.625C107.719 93.0383 107 92.5361 107 91.3355V79.5903H103.75V91.3573Z" fill="#E48E00"/>
<path d="M85.5497 91.477V83.3827C85.5497 81.3264 86.9278 80.0792 89.6519 79.6854C89.9339 79.6419 90.2472 79.6199 90.5289 79.6199H96.698C97.011 79.6199 97.2932 79.6419 97.6063 79.6854C100.331 80.0792 101.708 81.3264 101.708 83.3827V91.477C101.708 93.1453 101.123 94.0382 99.7747 94.6201L102.976 97.648H99.2025L96.6124 95.1982L94.0049 95.3714H90.5289C89.9339 95.3714 89.3077 95.2836 88.6186 95.0868C86.5519 94.4962 85.5497 93.3585 85.5497 91.477ZM89.0577 91.2802C89.0577 91.3897 89.0888 91.499 89.1202 91.6303C89.308 92.5709 90.1535 93.096 91.4374 93.096H94.3901L91.6778 90.5302H95.4515L97.8171 92.7679C98.2529 92.5245 98.5399 92.1522 98.6401 91.674C98.6712 91.5648 98.6712 91.4552 98.6712 91.346V83.5798C98.6712 83.4922 98.6712 83.3827 98.6401 83.2732C98.4521 82.3983 97.6065 81.8952 96.354 81.8952H91.4374C89.9971 81.8952 89.0577 82.5516 89.0577 83.5798V91.2802Z" fill="#E48E00"/>
<path d="M119.277 78.9394C117.28 78.8827 115.754 79.0773 114.449 79.6539C114.078 79.8178 113.487 79.822 113.426 80.3089C113.63 80.5327 113.662 80.8669 113.824 81.1421C114.135 81.6704 114.661 82.3782 115.13 82.7495C115.643 83.155 116.172 83.5888 116.721 83.9399C117.699 84.5647 118.791 84.9214 119.732 85.5473C120.287 85.9162 120.838 86.3808 121.379 86.7971C121.647 87.0029 121.827 87.323 122.174 87.4519C122.174 87.4323 122.174 87.4124 122.174 87.3925C121.992 87.1488 121.945 86.8136 121.777 86.559C121.531 86.3012 121.285 86.0432 121.038 85.7852C120.316 84.7809 119.4 83.8988 118.425 83.1661C117.648 82.5816 115.909 81.7921 115.585 80.8446C115.566 80.8247 115.547 80.8048 115.528 80.7849C116.079 80.72 116.724 80.511 117.233 80.3683C118.087 80.1283 118.85 80.1904 119.732 79.9517C120.13 79.8326 120.527 79.7133 120.925 79.5945C120.925 79.5149 120.925 79.4359 120.925 79.3563C120.479 78.8769 120.161 78.2425 119.675 77.8086C118.403 76.6736 117.015 75.5396 115.585 74.5941C114.792 74.0696 113.812 73.7288 112.972 73.2844C112.689 73.135 112.193 73.0573 112.006 72.8081C111.565 72.2184 111.324 71.471 110.984 70.7842C110.271 69.3453 109.57 67.7739 108.939 66.2601C108.508 65.2278 108.226 64.2098 107.689 63.2837C105.109 58.8399 102.333 56.1576 98.0318 53.5212C97.1166 52.9605 96.0147 52.7391 94.8503 52.4498C94.2257 52.4102 93.6006 52.3703 92.9757 52.3307C92.5943 52.1636 92.1975 51.6747 91.8396 51.4377C90.4148 50.4945 86.76 48.4429 85.7047 51.1402C85.0383 52.8427 86.7006 54.504 87.295 55.3667C87.7124 55.9719 88.2466 56.6504 88.5448 57.331C88.7409 57.7783 88.7748 58.2269 88.9426 58.7003C89.3556 59.8662 89.7148 61.1347 90.249 62.2123C90.5191 62.7574 90.8167 63.3319 91.1581 63.8195C91.3674 64.1186 91.726 64.2504 91.7827 64.7125C91.4319 65.2268 91.4119 66.0252 91.2148 66.6768C90.327 69.6103 90.6618 73.2564 91.9533 75.4275C92.3496 76.0939 93.283 77.5233 94.5663 76.9751C95.689 76.4959 95.4382 75.0111 95.7594 73.7011C95.832 73.404 95.7874 73.1857 95.9297 72.9868C95.9297 73.0065 95.9297 73.0265 95.9297 73.0464C96.2706 73.7607 96.6115 74.4749 96.9524 75.1891C97.7091 76.4662 99.0522 77.801 100.19 78.7016C100.78 79.1686 101.245 79.9761 102.008 80.2492C102.008 80.2293 102.008 80.2097 102.008 80.1896C101.989 80.1896 101.97 80.1896 101.951 80.1896C101.803 79.948 101.572 79.848 101.383 79.6539C100.939 79.1972 100.444 78.6294 100.077 78.1062C99.0416 76.6336 98.1267 75.0217 97.2933 73.344C96.8952 72.543 96.5492 71.6591 96.2136 70.8438C96.0843 70.5294 96.0858 70.0542 95.8163 69.8913C95.4488 70.4887 94.9075 70.9717 94.6233 71.6772C94.1687 72.8048 94.11 74.1799 93.9417 75.6059C93.842 75.6433 93.8863 75.6176 93.8278 75.6653C93.0367 75.4654 92.7586 74.6119 92.4647 73.8798C91.7209 72.0281 91.5828 69.0465 92.2372 66.9151C92.4065 66.3637 93.1719 64.6267 92.8621 64.1173C92.7143 63.609 92.2263 63.315 91.9533 62.9266C91.6154 62.4464 91.278 61.8142 91.0442 61.2598C90.4355 59.816 90.1513 58.1952 89.5105 56.7359C89.2043 56.0382 88.6862 55.3322 88.2608 54.712C87.7898 54.0249 87.2624 53.5189 86.8975 52.6878C86.7676 52.3926 86.5912 51.9199 86.7838 51.6164C86.8451 51.4116 86.9314 51.3261 87.1247 51.2593C87.4542 50.9931 88.3719 51.3479 88.7151 51.4973C89.6262 51.8938 90.3864 52.2714 91.1581 52.807C91.5286 53.0644 91.9032 53.5621 92.3509 53.6999C92.5212 53.6999 92.6918 53.6999 92.8621 53.6999C93.6618 53.8926 94.5577 53.7597 95.3048 53.9975C96.6254 54.4181 97.8088 55.0722 98.8836 55.7834C102.158 57.9498 104.835 61.0337 106.666 64.7125C106.961 65.3047 107.089 65.8701 107.348 66.4984C107.872 67.7653 108.531 69.069 109.052 70.3079C109.572 71.5441 110.078 72.7916 110.813 73.8202C111.2 74.361 112.692 74.651 113.37 74.9512C113.845 75.1617 114.624 75.3811 115.074 75.6653C115.934 76.209 116.767 76.8561 117.573 77.4514C117.977 77.749 119.216 78.4016 119.277 78.9394Z" fill="white"/>
</g>
<defs>
<filter id="filter0_dd_915_296" x="2.87904" y="12.097" width="142.242" height="142.242" filterUnits="userSpaceOnUse" color-interpolation-filters="sRGB">
<feFlood flood-opacity="0" result="BackgroundImageFix"/>
<feColorMatrix in="SourceAlpha" type="matrix" values="0 0 0 0 0 0 0 0 0 0 0 0 0 0 0 0 0 0 127 0" result="hardAlpha"/>
<feOffset dy="9.12096"/>
<feGaussianBlur stdDeviation="4.56048"/>
<feComposite in2="hardAlpha" operator="out"/>
<feColorMatrix type="matrix" values="0 0 0 0 0 0 0 0 0 0.380392 0 0 0 0 0.541176 0 0 0 0.2 0"/>
<feBlend mode="normal" in2="BackgroundImageFix" result="effect1_dropShadow_915_296"/>
<feColorMatrix in="SourceAlpha" type="matrix" values="0 0 0 0 0 0 0 0 0 0 0 0 0 0 0 0 0 0 127 0" result="hardAlpha"/>
<feOffset dy="9.12096"/>
<feGaussianBlur stdDeviation="4.56048"/>
<feComposite in2="hardAlpha" operator="out"/>
<feColorMatrix type="matrix" values="0 0 0 0 0 0 0 0 0 0.380392 0 0 0 0 0.541176 0 0 0 0.2 0"/>
<feBlend mode="normal" in2="effect1_dropShadow_915_296" result="effect2_dropShadow_915_296"/>
<feBlend mode="normal" in="SourceGraphic" in2="effect2_dropShadow_915_296" result="shape"/>
</filter>
</defs>
</svg>
