<svg width="148" height="155" viewBox="0 0 148 155" fill="none" xmlns="http://www.w3.org/2000/svg">
<rect y="0.0970459" width="148" height="148" rx="41.0443" fill="#F0F9FF"/>
<g filter="url(#filter0_dd_915_282)">
<rect x="12" y="12.097" width="124" height="124" rx="41.0443" fill="#38BDF8" shape-rendering="crispEdges"/>
<path d="M115.892 74.1056C115.892 68.4964 108.941 63.1805 98.2846 59.884C100.744 48.9072 99.6509 40.174 94.8349 37.3781C93.7249 36.7222 92.4269 36.4115 91.0095 36.4115V40.2603C91.7951 40.2603 92.427 40.4157 92.9564 40.7091C95.2789 42.0553 96.2865 47.1813 95.501 53.7743C95.3131 55.3967 95.0057 57.1053 94.63 58.8485C91.2827 58.0201 87.6281 57.3815 83.7856 56.9672C81.4801 53.7743 79.0892 50.8747 76.6812 48.3376C82.2486 43.1081 87.4744 40.2431 91.0266 40.2431V36.3943C86.3302 36.3943 80.1822 39.7771 73.9658 45.6452C67.7495 39.8116 61.6015 36.4633 56.9051 36.4633V40.3121C60.4402 40.3121 65.6831 43.1599 71.2505 48.3549C68.8596 50.892 66.4687 53.7743 64.1973 56.9672C60.3377 57.3815 56.6831 58.0201 53.3358 58.8658C52.943 57.1398 52.6527 55.4657 52.4478 53.8606C51.6451 47.2676 52.6356 42.1416 54.9411 40.7781C55.4535 40.4675 56.1195 40.3294 56.9051 40.3294V36.4806C55.4706 36.4806 54.1726 36.7912 53.0455 37.4471C48.2466 40.2431 47.1707 48.959 49.647 59.9013C39.0246 63.2151 32.1081 68.5136 32.1081 74.1056C32.1081 79.7149 39.0588 85.0307 49.7153 88.3272C47.2561 99.304 48.3491 108.037 53.165 110.833C54.2751 111.489 55.573 111.8 57.0076 111.8C61.704 111.8 67.852 108.417 74.0683 102.549C80.2846 108.382 86.4326 111.731 91.129 111.731C92.5636 111.731 93.8615 111.42 94.9886 110.764C99.7875 107.968 100.863 99.2523 98.3871 88.3099C108.975 85.0134 115.892 79.6976 115.892 74.1056ZM93.6566 62.5937C93.0247 64.8202 92.2391 67.1156 91.351 69.4111C90.6509 68.0304 89.9165 66.6496 89.1139 65.2689C88.3283 63.8882 87.4915 62.542 86.6547 61.2303C89.0797 61.5927 91.4194 62.0414 93.6566 62.5937ZM85.8349 80.9748C84.5028 83.3048 83.1366 85.5139 81.7192 87.5678C79.1746 87.7922 76.5958 87.913 74 87.913C71.4212 87.913 68.8425 87.7922 66.315 87.585C64.8975 85.5312 63.5142 83.3393 62.1821 81.0266C60.8842 78.7656 59.7059 76.4701 58.6299 74.1574C59.6888 71.8447 60.8842 69.5319 62.1651 67.271C63.4971 64.941 64.8633 62.7318 66.2808 60.678C68.8254 60.4536 71.4042 60.3328 74 60.3328C76.5787 60.3328 79.1575 60.4536 81.685 60.6607C83.1025 62.7146 84.4858 64.9065 85.8178 67.2192C87.1158 69.4802 88.2941 71.7756 89.37 74.0884C88.2941 76.4011 87.1157 78.7138 85.8349 80.9748ZM91.351 78.7311C92.2732 81.0438 93.0588 83.3565 93.7078 85.6002C91.4706 86.1525 89.1139 86.6185 86.6717 86.981C87.5085 85.652 88.3454 84.2885 89.1309 82.8905C89.9165 81.5098 90.6509 80.1118 91.351 78.7311ZM74.0341 97.1466C72.4459 95.4898 70.8577 93.643 69.2865 91.6237C70.8235 91.6927 72.3947 91.7445 73.9829 91.7445C75.5882 91.7445 77.1765 91.71 78.7305 91.6237C77.1935 93.643 75.6053 95.4898 74.0341 97.1466ZM61.3282 86.981C58.9032 86.6185 56.5635 86.1698 54.3263 85.6175C54.9582 83.3911 55.7438 81.0956 56.6318 78.8001C57.332 80.1809 58.0664 81.5616 58.869 82.9423C59.6717 84.3231 60.4914 85.6693 61.3282 86.981ZM73.9488 51.0646C75.537 52.7215 77.1252 54.5682 78.6964 56.5875C77.1594 56.5185 75.5882 56.4667 74 56.4667C72.3947 56.4667 70.8064 56.5012 69.2524 56.5875C70.7894 54.5682 72.3776 52.7215 73.9488 51.0646ZM61.3112 61.2303C60.4744 62.5592 59.6375 63.9227 58.852 65.3207C58.0664 66.7014 57.332 68.0822 56.6318 69.4629C55.7096 67.1502 54.9241 64.8374 54.2751 62.5937C56.5123 62.0587 58.869 61.5927 61.3112 61.2303ZM45.8557 82.8388C39.8102 80.2326 35.8994 76.8153 35.8994 74.1056C35.8994 71.3959 39.8102 67.9613 45.8557 65.3725C47.3244 64.7339 48.9297 64.1643 50.5863 63.6293C51.5597 67.0121 52.8406 70.533 54.4288 74.1401C52.8576 77.73 51.5939 81.2337 50.6375 84.5992C48.9468 84.0642 47.3415 83.4774 45.8557 82.8388ZM55.0436 107.502C52.721 106.156 51.7134 101.03 52.499 94.4369C52.6869 92.8146 52.9943 91.1059 53.37 89.3627C56.7172 90.1912 60.3719 90.8298 64.2144 91.244C66.5199 94.4369 68.9108 97.3365 71.3188 99.8736C65.7514 105.103 60.5256 107.968 56.9734 107.968C56.2049 107.951 55.5559 107.796 55.0436 107.502ZM95.5522 94.3506C96.3549 100.944 95.3643 106.07 93.0588 107.433C92.5465 107.744 91.8805 107.882 91.0949 107.882C87.5598 107.882 82.3169 105.034 76.7495 99.8391C79.1404 97.302 81.5313 94.4197 83.8027 91.2267C87.6622 90.8125 91.3169 90.1739 94.6641 89.3282C95.0569 91.0714 95.3643 92.7455 95.5522 94.3506ZM102.127 82.8388C100.658 83.4774 99.0531 84.0469 97.3966 84.5819C96.4232 81.1991 95.1423 77.6783 93.5541 74.0711C95.1252 70.4812 96.389 66.9776 97.3454 63.612C99.0361 64.1471 100.641 64.7339 102.144 65.3725C108.19 67.9786 112.101 71.3959 112.101 74.1056C112.084 76.8153 108.173 80.2499 102.127 82.8388Z" fill="white"/>
<path d="M73.9822 81.9927C78.2926 81.9927 81.7868 78.4613 81.7868 74.1052C81.7868 69.7491 78.2926 66.2178 73.9822 66.2178C69.6719 66.2178 66.1777 69.7491 66.1777 74.1052C66.1777 78.4613 69.6719 81.9927 73.9822 81.9927Z" fill="white"/>
</g>
<defs>
<filter id="filter0_dd_915_282" x="2.87904" y="12.097" width="142.242" height="142.242" filterUnits="userSpaceOnUse" color-interpolation-filters="sRGB">
<feFlood flood-opacity="0" result="BackgroundImageFix"/>
<feColorMatrix in="SourceAlpha" type="matrix" values="0 0 0 0 0 0 0 0 0 0 0 0 0 0 0 0 0 0 127 0" result="hardAlpha"/>
<feOffset dy="9.12096"/>
<feGaussianBlur stdDeviation="4.56048"/>
<feComposite in2="hardAlpha" operator="out"/>
<feColorMatrix type="matrix" values="0 0 0 0 0.027451 0 0 0 0 0.494118 0 0 0 0 0.854902 0 0 0 0.2 0"/>
<feBlend mode="normal" in2="BackgroundImageFix" result="effect1_dropShadow_915_282"/>
<feColorMatrix in="SourceAlpha" type="matrix" values="0 0 0 0 0 0 0 0 0 0 0 0 0 0 0 0 0 0 127 0" result="hardAlpha"/>
<feOffset dy="9.12096"/>
<feGaussianBlur stdDeviation="4.56048"/>
<feComposite in2="hardAlpha" operator="out"/>
<feColorMatrix type="matrix" values="0 0 0 0 0.0313726 0 0 0 0 0.639216 0 0 0 0 0.901961 0 0 0 0.1 0"/>
<feBlend mode="normal" in2="effect1_dropShadow_915_282" result="effect2_dropShadow_915_282"/>
<feBlend mode="normal" in="SourceGraphic" in2="effect2_dropShadow_915_282" result="shape"/>
</filter>
</defs>
</svg>
