<svg width="149" height="155" viewBox="0 0 149 155" fill="none" xmlns="http://www.w3.org/2000/svg">
<rect x="0.5" y="0.0970459" width="148" height="148" rx="41.0443" fill="#ECFDF5"/>
<g filter="url(#filter0_dd_915_289)">
<rect x="12.5" y="12.097" width="124" height="124" rx="41.0443" fill="#83CD29" shape-rendering="crispEdges"/>
<path d="M74.5 115.989C73.2764 115.989 72.0743 115.692 71.0145 115.127L59.9231 109.062C58.2678 108.206 59.0744 107.904 59.6218 107.727C61.3823 107.225 63.0679 106.521 64.6395 105.633C64.7711 105.576 64.916 105.552 65.0605 105.562C65.205 105.572 65.3445 105.616 65.4655 105.689L73.9882 110.366C74.1469 110.444 74.3237 110.485 74.5032 110.485C74.6828 110.485 74.8596 110.444 75.0183 110.366L108.254 92.6459C108.409 92.5598 108.538 92.4379 108.627 92.2921C108.716 92.1462 108.763 91.9815 108.762 91.814V56.367C108.762 56.1969 108.715 56.0296 108.625 55.8813C108.535 55.733 108.405 55.6086 108.247 55.5202L75.0118 37.8146C74.8551 37.7331 74.6783 37.6903 74.4984 37.6903C74.3185 37.6903 74.1417 37.7331 73.985 37.8146L40.7689 55.5262C40.6105 55.6127 40.4789 55.7356 40.387 55.8829C40.2951 56.0302 40.2459 56.197 40.2442 56.367V91.7991C40.2446 91.9662 40.2931 92.1301 40.3848 92.2742C40.4764 92.4183 40.6079 92.5373 40.7657 92.619L49.8811 97.4785C54.8211 99.7586 57.8466 97.0715 57.8466 94.3725V59.3893C57.8466 59.1512 57.949 58.9228 58.1313 58.7545C58.3135 58.5861 58.5607 58.4916 58.8184 58.4916H63.0296C63.2873 58.4916 63.5345 58.5861 63.7167 58.7545C63.899 58.9228 64.0014 59.1512 64.0014 59.3893V94.3755C64.0014 100.465 60.4122 103.951 54.1603 103.951C51.4632 103.994 48.8083 103.328 46.5058 102.03L37.7693 97.4007C36.7087 96.8302 35.8287 96.0126 35.2171 95.0297C34.6055 94.0467 34.2837 92.9328 34.2838 91.7991V56.367C34.2807 55.2315 34.6011 54.1153 35.2129 53.1304C35.8247 52.1455 36.7064 51.3268 37.7693 50.7564L71.008 33.0299C72.0787 32.4888 73.2796 32.2052 74.5 32.2052C75.7205 32.2052 76.9213 32.4888 77.992 33.0299L111.227 50.7564C112.288 51.3258 113.168 52.1422 113.78 53.1241C114.393 54.106 114.715 55.219 114.716 56.3521V91.7991C114.714 92.9328 114.391 94.0463 113.779 95.029C113.167 96.0118 112.288 96.8294 111.227 97.4007L77.992 115.127C76.9303 115.693 75.7258 115.99 74.5 115.989Z" fill="white"/>
<path d="M68.1949 79.9426C68.1949 79.7045 68.2973 79.4762 68.4796 79.3078C68.6618 79.1395 68.909 79.0449 69.1667 79.0449H73.4653C73.695 79.0456 73.917 79.1214 74.0919 79.2589C74.2669 79.3964 74.3834 79.5866 74.4209 79.796C75.0688 83.8386 77.0124 85.8764 85.8007 85.8764C92.8008 85.8764 95.7843 84.4131 95.7843 80.9809C95.7843 79.003 94.9388 77.5338 84.0579 76.5493C74.9619 75.7174 69.3384 73.8562 69.3384 67.1414C69.3384 60.9473 74.991 57.2518 84.4661 57.2518C95.1137 57.2518 100.384 60.6661 101.051 67.9913C101.062 68.1136 101.045 68.2365 101.001 68.3525C100.958 68.4684 100.89 68.575 100.8 68.6656C100.71 68.7561 100.602 68.8288 100.481 68.879C100.36 68.9293 100.229 68.9561 100.096 68.9578H95.7681C95.551 68.955 95.3411 68.8851 95.172 68.7593C95.0029 68.6334 94.8843 68.4589 94.8351 68.2636C93.8018 64.0115 91.2719 62.653 84.4693 62.653C76.8245 62.653 75.9369 65.1127 75.9369 66.9559C75.9369 69.1882 76.9865 69.8405 87.307 71.1003C97.5205 72.3481 102.373 74.1135 102.373 80.7445C102.373 87.4353 96.3349 91.2655 85.8039 91.2655C71.2431 91.2835 68.1949 85.1163 68.1949 79.9426Z" fill="white"/>
</g>
<defs>
<filter id="filter0_dd_915_289" x="3.37904" y="12.097" width="142.242" height="142.242" filterUnits="userSpaceOnUse" color-interpolation-filters="sRGB">
<feFlood flood-opacity="0" result="BackgroundImageFix"/>
<feColorMatrix in="SourceAlpha" type="matrix" values="0 0 0 0 0 0 0 0 0 0 0 0 0 0 0 0 0 0 127 0" result="hardAlpha"/>
<feOffset dy="9.12096"/>
<feGaussianBlur stdDeviation="4.56048"/>
<feComposite in2="hardAlpha" operator="out"/>
<feColorMatrix type="matrix" values="0 0 0 0 0.513726 0 0 0 0 0.803922 0 0 0 0 0.160784 0 0 0 0.2 0"/>
<feBlend mode="normal" in2="BackgroundImageFix" result="effect1_dropShadow_915_289"/>
<feColorMatrix in="SourceAlpha" type="matrix" values="0 0 0 0 0 0 0 0 0 0 0 0 0 0 0 0 0 0 127 0" result="hardAlpha"/>
<feOffset dy="9.12096"/>
<feGaussianBlur stdDeviation="4.56048"/>
<feComposite in2="hardAlpha" operator="out"/>
<feColorMatrix type="matrix" values="0 0 0 0 0.513726 0 0 0 0 0.803922 0 0 0 0 0.160784 0 0 0 0.2 0"/>
<feBlend mode="normal" in2="effect1_dropShadow_915_289" result="effect2_dropShadow_915_289"/>
<feBlend mode="normal" in="SourceGraphic" in2="effect2_dropShadow_915_289" result="shape"/>
</filter>
</defs>
</svg>
