<svg width="1104" height="176" viewBox="0 0 1104 176" fill="none" xmlns="http://www.w3.org/2000/svg">
<path d="M10.7628 134.044C11.3138 132.745 10.7076 131.246 9.40886 130.695C8.11008 130.144 6.61054 130.75 6.05955 132.049L10.7628 134.044ZM157.525 129.44L157.118 131.962L157.525 129.44ZM201.279 143.661L202.91 145.627L201.279 143.661ZM254.271 118.499C254.873 117.223 254.327 115.7 253.051 115.098L232.26 105.284C230.985 104.682 229.462 105.228 228.86 106.504C228.258 107.78 228.804 109.302 230.08 109.905L248.561 118.628L239.837 137.109C239.235 138.385 239.781 139.907 241.057 140.509C242.333 141.111 243.855 140.565 244.458 139.29L254.271 118.499ZM6.05955 132.049C1.73024 142.253 -0.0754029 150.158 0.586667 156.068C0.924356 159.082 1.91268 161.652 3.59863 163.705C5.28321 165.756 7.52743 167.124 10.1044 167.963C15.1477 169.605 21.7461 169.311 29.0636 167.994C36.4583 166.662 44.9488 164.215 53.9667 161.224C62.9938 158.23 72.6346 154.663 82.3275 151.07C92.0376 147.471 101.802 143.846 111.146 140.708C120.494 137.568 129.354 134.938 137.245 133.317C145.175 131.688 151.921 131.124 157.118 131.962L157.931 126.918C151.825 125.934 144.363 126.639 136.217 128.312C128.031 129.994 118.947 132.698 109.519 135.865C100.087 139.033 90.2442 142.687 80.552 146.279C70.8428 149.878 61.2865 153.414 52.3584 156.375C43.4213 159.339 35.1985 161.698 28.1585 162.965C21.0414 164.246 15.4837 164.342 11.6862 163.105C9.84274 162.505 8.49537 161.617 7.54676 160.462C6.59952 159.309 5.91305 157.723 5.66395 155.499C5.15242 150.933 6.52514 144.033 10.7628 134.044L6.05955 132.049ZM157.118 131.962C185.41 136.525 205.754 141.763 216.238 147.747C221.563 150.787 223.527 153.552 223.684 155.817C223.84 158.07 222.299 161.232 216.878 165.32L219.954 169.4C225.653 165.102 229.127 160.471 228.781 155.465C228.436 150.472 224.384 146.515 218.771 143.31C207.378 136.807 186.156 131.471 157.931 126.918L157.118 131.962ZM216.878 165.32C211.635 169.274 207.321 170.445 204.152 170.187C201.053 169.934 198.718 168.296 197.286 165.845C194.367 160.846 195.148 152.068 202.91 145.627L199.648 141.695C190.273 149.474 188.501 160.932 192.875 168.421C195.089 172.213 198.862 174.882 203.738 175.279C208.545 175.67 214.076 173.832 219.954 169.4L216.878 165.32ZM202.91 145.627C209.525 140.138 219.178 134.684 228.683 130.07C238.155 125.473 247.314 121.789 252.824 119.813L251.099 115.004C245.427 117.038 236.099 120.792 226.453 125.474C216.84 130.14 206.743 135.807 199.648 141.695L202.91 145.627Z" fill="url(#paint0_linear_915_270)"/>
<path d="M31.968 73.644C27.6747 73.644 23.8107 72.908 20.376 71.436C16.9413 69.9027 14.2427 67.756 12.28 64.996C10.3173 62.236 9.336 59.016 9.336 55.336H20.56C20.8053 58.096 21.8787 60.3653 23.78 62.144C25.7427 63.9227 28.472 64.812 31.968 64.812C35.5867 64.812 38.408 63.9533 40.432 62.236C42.456 60.4573 43.468 58.188 43.468 55.428C43.468 53.2813 42.824 51.5333 41.536 50.184C40.3093 48.8347 38.7453 47.792 36.844 47.056C35.004 46.32 32.428 45.5227 29.116 44.664C24.9453 43.56 21.5413 42.456 18.904 41.352C16.328 40.1867 14.12 38.408 12.28 36.016C10.44 33.624 9.52 30.4347 9.52 26.448C9.52 22.768 10.44 19.548 12.28 16.788C14.12 14.028 16.696 11.912 20.008 10.44C23.32 8.968 27.1533 8.23199 31.508 8.23199C37.7027 8.23199 42.7627 9.79599 46.688 12.924C50.6747 15.9907 52.8827 20.2227 53.312 25.62H41.72C41.536 23.2893 40.432 21.296 38.408 19.64C36.384 17.984 33.716 17.156 30.404 17.156C27.3987 17.156 24.9453 17.9227 23.044 19.456C21.1427 20.9893 20.192 23.1973 20.192 26.08C20.192 28.0427 20.7747 29.668 21.94 30.956C23.1667 32.1827 24.7 33.164 26.54 33.9C28.38 34.636 30.8947 35.4333 34.084 36.292C38.316 37.4573 41.7507 38.6227 44.388 39.788C47.0867 40.9533 49.356 42.7627 51.196 45.216C53.0973 47.608 54.048 50.828 54.048 54.876C54.048 58.1267 53.1587 61.1933 51.38 64.076C49.6627 66.9587 47.1173 69.2893 43.744 71.068C40.432 72.7853 36.5067 73.644 31.968 73.644ZM88.4114 73.828C83.6274 73.828 79.3034 72.7547 75.4394 70.608C71.5754 68.4 68.5394 65.3333 66.3314 61.408C64.1234 57.4213 63.0194 52.8213 63.0194 47.608C63.0194 42.456 64.1541 37.8867 66.4234 33.9C68.6928 29.9133 71.7901 26.8467 75.7154 24.7C79.6408 22.5533 84.0261 21.48 88.8714 21.48C93.7168 21.48 98.1021 22.5533 102.027 24.7C105.953 26.8467 109.05 29.9133 111.319 33.9C113.589 37.8867 114.723 42.456 114.723 47.608C114.723 52.76 113.558 57.3293 111.227 61.316C108.897 65.3027 105.707 68.4 101.659 70.608C97.6728 72.7547 93.2568 73.828 88.4114 73.828ZM88.4114 64.72C91.1101 64.72 93.6248 64.076 95.9554 62.788C98.3474 61.5 100.279 59.568 101.751 56.992C103.223 54.416 103.959 51.288 103.959 47.608C103.959 43.928 103.254 40.8307 101.843 38.316C100.433 35.74 98.5621 33.808 96.2314 32.52C93.9008 31.232 91.3861 30.588 88.6874 30.588C85.9888 30.588 83.4741 31.232 81.1434 32.52C78.8741 33.808 77.0648 35.74 75.7154 38.316C74.3661 40.8307 73.6914 43.928 73.6914 47.608C73.6914 53.0667 75.0714 57.2987 77.8314 60.304C80.6528 63.248 84.1794 64.72 88.4114 64.72ZM135.579 29.852C137.358 27.3987 139.781 25.4053 142.847 23.872C145.975 22.2773 149.441 21.48 153.243 21.48C157.721 21.48 161.769 22.5533 165.387 24.7C169.006 26.8467 171.858 29.9133 173.943 33.9C176.029 37.8253 177.071 42.3333 177.071 47.424C177.071 52.5147 176.029 57.084 173.943 61.132C171.858 65.1187 168.975 68.2467 165.295 70.516C161.677 72.724 157.659 73.828 153.243 73.828C149.318 73.828 145.822 73.0613 142.755 71.528C139.75 69.9947 137.358 68.032 135.579 65.64V73H125.091V4.92H135.579V29.852ZM166.399 47.424C166.399 43.928 165.663 40.9227 164.191 38.408C162.781 35.832 160.879 33.9 158.487 32.612C156.157 31.2627 153.642 30.588 150.943 30.588C148.306 30.588 145.791 31.2627 143.399 32.612C141.069 33.9613 139.167 35.924 137.695 38.5C136.285 41.076 135.579 44.112 135.579 47.608C135.579 51.104 136.285 54.1707 137.695 56.808C139.167 59.384 141.069 61.3467 143.399 62.696C145.791 64.0453 148.306 64.72 150.943 64.72C153.642 64.72 156.157 64.0453 158.487 62.696C160.879 61.2853 162.781 59.2613 164.191 56.624C165.663 53.9867 166.399 50.92 166.399 47.424ZM197.931 29.668C199.464 27.092 201.488 25.0987 204.003 23.688C206.579 22.216 209.615 21.48 213.111 21.48V32.336H210.443C206.334 32.336 203.206 33.3787 201.059 35.464C198.974 37.5493 197.931 41.168 197.931 46.32V73H187.443V22.308H197.931V29.668ZM269.212 46.412C269.212 48.3133 269.089 50.0307 268.844 51.564H230.112C230.418 55.612 231.921 58.8627 234.62 61.316C237.318 63.7693 240.63 64.996 244.556 64.996C250.198 64.996 254.185 62.6347 256.516 57.912H267.832C266.298 62.5733 263.508 66.4067 259.46 69.412C255.473 72.356 250.505 73.828 244.556 73.828C239.71 73.828 235.356 72.7547 231.492 70.608C227.689 68.4 224.684 65.3333 222.476 61.408C220.329 57.4213 219.256 52.8213 219.256 47.608C219.256 42.3947 220.298 37.8253 222.384 33.9C224.53 29.9133 227.505 26.8467 231.308 24.7C235.172 22.5533 239.588 21.48 244.556 21.48C249.34 21.48 253.602 22.5227 257.344 24.608C261.085 26.6933 263.998 29.6373 266.084 33.44C268.169 37.1813 269.212 41.5053 269.212 46.412ZM258.264 43.1C258.202 39.236 256.822 36.1387 254.124 33.808C251.425 31.4773 248.082 30.312 244.096 30.312C240.477 30.312 237.38 31.4773 234.804 33.808C232.228 36.0773 230.694 39.1747 230.204 43.1H258.264ZM72.264 103.48C76.2507 103.48 79.808 104.308 82.936 105.964C86.1253 107.62 88.6093 110.073 90.388 113.324C92.228 116.575 93.148 120.5 93.148 125.1V155H82.752V126.664C82.752 122.125 81.6173 118.66 79.348 116.268C77.0787 113.815 73.9813 112.588 70.056 112.588C66.1307 112.588 63.0027 113.815 60.672 116.268C58.4027 118.66 57.268 122.125 57.268 126.664V155H46.872V126.664C46.872 122.125 45.7373 118.66 43.468 116.268C41.1987 113.815 38.1013 112.588 34.176 112.588C30.2507 112.588 27.1227 113.815 24.792 116.268C22.5227 118.66 21.388 122.125 21.388 126.664V155H10.9V104.308H21.388V110.104C23.1053 108.019 25.2827 106.393 27.92 105.228C30.5573 104.063 33.3787 103.48 36.384 103.48C40.432 103.48 44.0507 104.339 47.24 106.056C50.4293 107.773 52.8827 110.257 54.6 113.508C56.1333 110.441 58.5253 108.019 61.776 106.24C65.0267 104.4 68.5227 103.48 72.264 103.48ZM111.83 97.592C109.928 97.592 108.334 96.948 107.046 95.66C105.758 94.372 105.114 92.7773 105.114 90.876C105.114 88.9747 105.758 87.38 107.046 86.092C108.334 84.804 109.928 84.16 111.83 84.16C113.67 84.16 115.234 84.804 116.522 86.092C117.81 87.38 118.454 88.9747 118.454 90.876C118.454 92.7773 117.81 94.372 116.522 95.66C115.234 96.948 113.67 97.592 111.83 97.592ZM116.982 104.308V155H106.494V104.308H116.982ZM192.116 103.48C196.102 103.48 199.66 104.308 202.788 105.964C205.977 107.62 208.461 110.073 210.24 113.324C212.08 116.575 213 120.5 213 125.1V155H202.604V126.664C202.604 122.125 201.469 118.66 199.2 116.268C196.93 113.815 193.833 112.588 189.908 112.588C185.982 112.588 182.854 113.815 180.524 116.268C178.254 118.66 177.12 122.125 177.12 126.664V155H166.724V126.664C166.724 122.125 165.589 118.66 163.32 116.268C161.05 113.815 157.953 112.588 154.028 112.588C150.102 112.588 146.974 113.815 144.644 116.268C142.374 118.66 141.24 122.125 141.24 126.664V155H130.752V104.308H141.24V110.104C142.957 108.019 145.134 106.393 147.772 105.228C150.409 104.063 153.23 103.48 156.236 103.48C160.284 103.48 163.902 104.339 167.092 106.056C170.281 107.773 172.734 110.257 174.452 113.508C175.985 110.441 178.377 108.019 181.628 106.24C184.878 104.4 188.374 103.48 192.116 103.48Z" fill="#111827"/>
<defs>
<linearGradient id="paint0_linear_915_270" x1="-185.345" y1="208.068" x2="245.136" y2="159.443" gradientUnits="userSpaceOnUse">
<stop stop-color="#FFF278"/>
<stop offset="1" stop-color="#F28D2F"/>
</linearGradient>
</defs>
</svg>
