<svg width="44" height="31" viewBox="0 0 44 31" fill="none" xmlns="http://www.w3.org/2000/svg">
<path d="M3.09307 27.6752H0.18182V11.7833H2.96649V14.3779H3.09307C3.3884 13.5346 3.98964 12.8211 4.89678 12.2373C5.82499 11.6319 6.73213 11.3292 7.61816 11.3292C8.46201 11.3292 9.17926 11.459 9.76995 11.7184L8.88392 14.6049C8.5253 14.4535 7.95571 14.3779 7.17515 14.3779C6.07815 14.3779 5.11829 14.8319 4.29554 15.74C3.4939 16.6481 3.09307 17.7076 3.09307 18.9184V27.6752ZM8.90766 22.8103C8.90766 23.5887 9.2241 24.2373 9.85698 24.7563C10.511 25.2752 11.2704 25.5346 12.1353 25.5346C13.3589 25.5346 14.4454 25.0698 15.3947 24.14C16.3651 23.2103 16.8503 22.1184 16.8503 20.8644C15.9432 20.1292 14.6774 19.7617 13.053 19.7617C11.8717 19.7617 10.8801 20.0536 10.0785 20.6373C9.29792 21.2211 8.90766 21.9454 8.90766 22.8103ZM12.6733 11.2644C14.8251 11.2644 16.5233 11.8589 17.768 13.0481C19.0126 14.2157 19.635 15.8265 19.635 17.8806V27.6752H16.8503V25.4698H16.7237C15.5213 27.286 13.9179 28.1941 11.9138 28.1941C10.2051 28.1941 8.77054 27.6752 7.61025 26.6373C6.47107 25.5995 5.90147 24.3022 5.90147 22.7454C5.90147 21.1022 6.50271 19.7941 7.70518 18.8211C8.92876 17.8481 10.5531 17.3617 12.5784 17.3617C14.3082 17.3617 15.7322 17.686 16.8503 18.3346V17.6536C16.8503 16.6157 16.4495 15.74 15.6478 15.0265C14.8462 14.2914 13.9074 13.9238 12.8315 13.9238C11.2071 13.9238 9.92026 14.6265 8.97094 16.0319L6.40778 14.3779C7.82122 12.3022 9.90972 11.2644 12.6733 11.2644ZM25.7981 4.19409C26.8529 4.19409 27.718 4.37788 28.3929 4.74544L27.6018 7.37247C27.0955 7.11301 26.5259 6.98328 25.8931 6.98328C25.1757 6.98328 24.5852 7.24274 24.121 7.76166C23.678 8.25895 23.4565 8.92923 23.4565 9.77247V11.7833H27.5069V14.5076H23.4565V27.6752H20.5452V14.5076H17.634V11.7833H20.5452V9.48058C20.5452 7.90219 21.0305 6.62653 22.0009 5.65355C22.9924 4.68058 24.2581 4.19409 25.7981 4.19409ZM24.1895 19.7292C24.1895 17.286 24.9384 15.2644 26.4361 13.6644C27.955 12.0644 29.8644 11.2644 32.1637 11.2644C34.4632 11.2644 36.3619 12.0644 37.8596 13.6644C39.3785 15.2644 40.138 17.286 40.138 19.7292C40.138 22.1941 39.3785 24.2157 37.8596 25.7941C36.3619 27.3941 34.4632 28.1941 32.1637 28.1941C29.8644 28.1941 27.955 27.3941 26.4361 25.7941C24.9384 24.1941 24.1895 22.1725 24.1895 19.7292ZM27.1006 19.7292C27.1006 21.4373 27.586 22.8211 28.5563 23.8806C29.5268 24.94 30.7292 25.4698 32.1637 25.4698C33.5984 25.4698 34.8009 24.94 35.7711 23.8806C36.7416 22.8211 37.2267 21.4373 37.2267 19.7292C37.2267 18.0427 36.7416 16.6698 35.7711 15.6103C34.7797 14.5292 33.5772 13.9887 32.1637 13.9887C30.7504 13.9887 29.5479 14.5292 28.5563 15.6103C27.586 16.6698 27.1006 18.0427 27.1006 19.7292ZM43.8182 25.6644C43.8182 26.2698 43.6071 26.7887 43.1853 27.2211C42.7844 27.6535 42.2781 27.8698 41.6664 27.8698C41.0756 27.8698 40.5693 27.6535 40.1475 27.2211C39.7256 26.7887 39.5146 26.2698 39.5146 25.6644C39.5146 25.0373 39.7256 24.5184 40.1475 24.1076C40.5693 23.6752 41.0756 23.459 41.6664 23.459C42.2781 23.459 42.7844 23.6752 43.1853 24.1076C43.6071 24.5184 43.8182 25.0373 43.8182 25.6644Z" fill="#F9FAFB"/>
</svg>
